<svg width="1167" height="227" viewBox="0 0 1167 227" fill="none" xmlns="http://www.w3.org/2000/svg">
<path fill-rule="evenodd" clip-rule="evenodd" d="M1200 226.556V0C1170.2 39.7823 1128.14 95.6064 1039.2 116.074C1014.06 121.853 986.956 124.411 961.104 126.852C911.809 131.505 867.071 135.728 849.221 161.024C845.131 166.833 843.558 172.199 841.977 177.596C839.726 185.276 837.457 193.018 827.888 202.189C815.122 214.491 796.981 221.943 778 226.556H1200Z" fill="#A663CC" fill-opacity="0.5"/>
<path fill-rule="evenodd" clip-rule="evenodd" d="M0 226.556V0C29.7961 39.7823 71.8628 95.6064 160.802 116.074C185.939 121.853 213.044 124.411 238.896 126.852C288.191 131.505 332.929 135.728 350.779 161.024C354.869 166.833 356.442 172.199 358.023 177.596C360.274 185.276 362.543 193.018 372.112 202.189C384.878 214.491 403.019 221.943 422 226.556H0Z" fill="#A663CC" fill-opacity="0.5"/>
</svg>
