<svg width="1200" height="425" viewBox="0 0 1200 425" fill="none" xmlns="http://www.w3.org/2000/svg">
<path d="M1200 425V0C1154.31 49.4995 1107.95 199.352 948.264 244.404C850.84 271.861 731.243 254.845 694.961 317.88C681.747 340.889 688.242 359.645 666.517 385.168C649.496 405.278 625.308 417.459 600 425H1200Z" fill="#A663CC" fill-opacity="0.2"/>
<path d="M1.12378e-05 425V0C45.6887 49.4995 92.0493 199.352 251.736 244.404C349.16 271.861 468.757 254.845 505.039 317.88C518.253 340.889 511.758 359.645 533.483 385.168C550.504 405.278 574.692 417.459 600 425H1.12378e-05Z" fill="#A663CC" fill-opacity="0.2"/>
</svg>
